<?xml version="1.0" standalone="no"?>
<!DOCTYPE svg PUBLIC "-//W3C//DTD SVG 20010904//EN"
 "http://www.w3.org/TR/2001/REC-SVG-20010904/DTD/svg10.dtd">
<svg version="1.0" xmlns="http://www.w3.org/2000/svg"
 width="244.000000pt" height="244.000000pt" viewBox="0 0 244.000000 244.000000"
 preserveAspectRatio="xMidYMid meet">
<metadata>
Created by potrace 1.14, written by Peter Selinger 2001-2017
</metadata>
<g transform="translate(0.000000,244.000000) scale(0.100000,-0.100000)"
fill="#000000" stroke="none">
<path d="M1105 2391 c-91 -33 -803 -447 -858 -500 -47 -44 -81 -101 -97 -161
-9 -32 -12 -181 -13 -510 0 -400 2 -473 16 -521 16 -53 62 -129 96 -157 73
-61 778 -469 854 -495 32 -11 74 -15 130 -13 101 3 100 3 489 229 158 92 309
179 335 193 81 45 142 94 174 140 63 92 62 85 65 584 1 251 -2 479 -7 508 -4
29 -19 77 -32 106 -45 98 -60 108 -592 414 -148 86 -295 166 -325 179 -68 28
-164 30 -235 4z m179 -82 c35 -10 393 -210 706 -396 226 -134 215 -100 215
-698 l0 -470 -28 -57 c-16 -32 -44 -70 -63 -86 -40 -33 -725 -431 -796 -462
-81 -36 -154 -29 -253 24 -211 114 -700 400 -740 434 -44 36 -74 81 -86 127
-17 60 -15 939 2 994 28 94 79 129 743 507 170 96 211 108 300 83z"/>
<path d="M1049 1789 c-9 -17 -7 -30 6 -60 14 -30 15 -42 6 -53 -7 -8 -14 -38
-17 -67 -2 -29 -6 -54 -9 -57 -2 -3 -28 3 -58 12 -152 48 -287 39 -380 -26
-81 -56 -118 -128 -112 -221 4 -67 20 -99 76 -155 88 -87 246 -111 384 -58 91
35 142 68 305 199 154 124 200 153 288 183 143 49 297 -11 318 -122 32 -172
-222 -262 -407 -144 -52 34 -71 37 -90 13 -19 -22 -13 -47 20 -81 37 -40 51
-92 47 -176 -4 -109 -57 -204 -160 -285 -21 -17 -44 -31 -51 -31 -19 0 -115
78 -115 94 0 16 39 34 93 42 23 4 48 11 55 17 17 13 15 42 -4 62 -21 21 -97
13 -163 -17 -43 -19 -45 -19 -58 -2 -7 10 -13 31 -13 46 0 25 7 32 53 53 29
13 79 27 112 31 33 4 66 11 73 17 19 15 14 55 -8 67 -30 16 -133 3 -206 -27
-83 -33 -124 -70 -124 -113 0 -54 58 -176 112 -235 53 -58 162 -135 191 -135
55 0 181 103 234 191 40 67 62 151 65 254 3 73 5 80 23 77 58 -7 175 -4 212 7
59 16 133 69 166 119 44 66 49 153 13 226 -32 65 -81 109 -153 136 -154 57
-313 14 -504 -136 -289 -227 -349 -261 -469 -268 -147 -8 -262 109 -216 219
54 128 234 155 432 65 37 -16 72 -30 79 -30 26 0 35 30 38 119 2 102 15 125
75 136 30 5 39 1 78 -40 50 -50 48 -49 73 -35 27 14 33 38 17 69 -13 24 -13
31 0 56 8 15 14 35 14 44 0 43 -59 56 -84 19 -14 -19 -25 -22 -88 -23 -64 0
-75 2 -91 22 -23 29 -63 30 -78 2z"/>
</g>
</svg>
