<svg xmlns="http://www.w3.org/2000/svg" xmlns:xlink="http://www.w3.org/1999/xlink" viewBox="0 0 202.92 224.71"><defs><style>.cls-1{stroke:#f6c270;stroke-miterlimit:10;stroke-width:2px;fill:url(#radial-gradient);}.cls-2{font-size:30px;fill:#fff4e6;font-family:Poppins-SemiBold, Poppins;font-weight:600;letter-spacing:0.07em;}</style><radialGradient id="radial-gradient" cx="168.42" cy="214.03" r="271.66" gradientUnits="userSpaceOnUse"><stop offset="0" stop-color="#1c2635"/><stop offset="1" stop-color="#334968"/></radialGradient></defs><g id="Layer_2" data-name="Layer 2"><g id="Layer_1-2" data-name="Layer 1"><g id="Layer_2-2" data-name="Layer 2"><g id="Layer_1-2-2" data-name="Layer 1-2"><path class="cls-1" d="M101.77,1a30.06,30.06,0,0,1,14.69,4l70.46,40.68a30,30,0,0,1,15,26V153a30,30,0,0,1-15,26L116.5,219.69a30,30,0,0,1-30,0L16,179A30,30,0,0,1,1,153V71.67a30,30,0,0,1,15-26L86.5,5a30,30,0,0,1,15.31-4"/></g></g><text class="cls-2" transform="translate(74.79 123.46)">BID</text></g></g></svg>