<svg width="847" height="543" viewBox="0 0 847 543" fill="none" xmlns="http://www.w3.org/2000/svg">
<g opacity="0.1">
<rect x="845.62" y="542.5" width="842.333" height="541.999" rx="39.5" transform="rotate(180 845.62 542.5)" stroke="url(#paint0_linear_840_965)"/>
<rect x="844.032" y="450.836" width="844.032" height="0.768033" rx="0.384016" transform="rotate(180 844.032 450.836)" fill="url(#paint1_linear_840_965)"/>
<rect x="743.419" y="0.000488281" width="542.999" height="0.698724" rx="0.349362" transform="rotate(90 743.419 0.000488281)" fill="url(#paint2_linear_840_965)"/>
<rect x="637.216" width="542.999" height="0.698724" rx="0.349362" transform="rotate(90 637.216 0)" fill="url(#paint3_linear_840_965)"/>
<rect x="531.014" width="542.999" height="0.698724" rx="0.349362" transform="rotate(90 531.014 0)" fill="url(#paint4_linear_840_965)"/>
<rect x="424.811" y="0.000488281" width="542.999" height="0.698724" rx="0.349362" transform="rotate(90 424.811 0.000488281)" fill="url(#paint5_linear_840_965)"/>
<rect x="318.608" y="0.000488281" width="542.999" height="0.698724" rx="0.349362" transform="rotate(90 318.608 0.000488281)" fill="url(#paint6_linear_840_965)"/>
<rect x="212.405" width="542.999" height="0.698724" rx="0.349362" transform="rotate(90 212.405 0)" fill="url(#paint7_linear_840_965)"/>
<rect x="106.202" width="542.999" height="0.698724" rx="0.349362" transform="rotate(90 106.202 0)" fill="url(#paint8_linear_840_965)"/>
<rect x="844.032" y="358.672" width="844.032" height="0.768033" rx="0.384016" transform="rotate(180 844.032 358.672)" fill="url(#paint9_linear_840_965)"/>
<rect x="844.032" y="266.508" width="844.032" height="0.768033" rx="0.384016" transform="rotate(180 844.032 266.508)" fill="url(#paint10_linear_840_965)"/>
<rect opacity="0.4" x="844.032" y="174.344" width="844.032" height="0.768033" rx="0.384016" transform="rotate(180 844.032 174.344)" fill="url(#paint11_linear_840_965)"/>
</g>
<defs>
<linearGradient id="paint0_linear_840_965" x1="846.099" y1="607.409" x2="846.099" y2="948.812" gradientUnits="userSpaceOnUse">
<stop stop-color="white"/>
<stop offset="1" stop-opacity="0"/>
</linearGradient>
<linearGradient id="paint1_linear_840_965" x1="1266.05" y1="450.836" x2="1266.05" y2="451.604" gradientUnits="userSpaceOnUse">
<stop stop-color="white"/>
<stop offset="1" stop-opacity="0"/>
</linearGradient>
<linearGradient id="paint2_linear_840_965" x1="1286.09" y1="0.269985" x2="735.83" y2="0.275779" gradientUnits="userSpaceOnUse">
<stop stop-color="white"/>
<stop offset="1" stop-opacity="0"/>
</linearGradient>
<linearGradient id="paint3_linear_840_965" x1="1179.89" y1="-0.264606" x2="659.802" y2="-3.58314" gradientUnits="userSpaceOnUse">
<stop stop-color="white"/>
<stop offset="1" stop-opacity="0"/>
</linearGradient>
<linearGradient id="paint4_linear_840_965" x1="1073.68" y1="0.581331" x2="585.276" y2="0.580339" gradientUnits="userSpaceOnUse">
<stop stop-color="white"/>
<stop offset="1" stop-opacity="0"/>
</linearGradient>
<linearGradient id="paint5_linear_840_965" x1="967.48" y1="0.0494199" x2="494.914" y2="0.874779" gradientUnits="userSpaceOnUse">
<stop stop-color="white"/>
<stop offset="1" stop-opacity="0"/>
</linearGradient>
<linearGradient id="paint6_linear_840_965" x1="861.277" y1="0.209843" x2="318.939" y2="0.208095" gradientUnits="userSpaceOnUse">
<stop stop-color="white"/>
<stop offset="1" stop-opacity="0"/>
</linearGradient>
<linearGradient id="paint7_linear_840_965" x1="755.074" y1="0.370503" x2="217.261" y2="0.371229" gradientUnits="userSpaceOnUse">
<stop stop-color="white"/>
<stop offset="1" stop-opacity="0"/>
</linearGradient>
<linearGradient id="paint8_linear_840_965" x1="648.871" y1="0.530402" x2="174.419" y2="0.527293" gradientUnits="userSpaceOnUse">
<stop stop-color="white"/>
<stop offset="1" stop-opacity="0"/>
</linearGradient>
<linearGradient id="paint9_linear_840_965" x1="1266.05" y1="358.672" x2="1266.05" y2="359.44" gradientUnits="userSpaceOnUse">
<stop stop-color="white"/>
<stop offset="1" stop-opacity="0"/>
</linearGradient>
<linearGradient id="paint10_linear_840_965" x1="1266.05" y1="266.508" x2="1266.05" y2="267.276" gradientUnits="userSpaceOnUse">
<stop stop-color="white"/>
<stop offset="1" stop-opacity="0"/>
</linearGradient>
<linearGradient id="paint11_linear_840_965" x1="1266.05" y1="174.344" x2="1266.05" y2="175.112" gradientUnits="userSpaceOnUse">
<stop stop-color="white"/>
<stop offset="1" stop-opacity="0"/>
</linearGradient>
</defs>
</svg>
