<svg width="847" height="543" viewBox="0 0 847 543" fill="none" xmlns="http://www.w3.org/2000/svg">
<path opacity="0.1" fill-rule="evenodd" clip-rule="evenodd" d="M806.12 542H743.419L743.419 450.836H843.648C843.86 450.836 844.032 450.664 844.032 450.452C844.032 450.24 843.86 450.068 843.648 450.068H743.419V358.672H843.648C843.86 358.672 844.032 358.5 844.032 358.288C844.032 358.076 843.86 357.904 843.648 357.904H743.419L743.419 266.508H843.648C843.86 266.508 844.032 266.336 844.032 266.124C844.032 265.912 843.86 265.74 843.648 265.74H743.419V174.344H843.648C843.86 174.344 844.032 174.172 844.032 173.96C844.032 173.748 843.86 173.576 843.648 173.576H743.419L743.419 1.00067H806.12C827.659 1.00067 845.12 18.4615 845.12 40.0007V503C845.12 524.539 827.659 542 806.12 542ZM742.721 173.576L742.721 1.00067H637.216L637.216 173.576H742.721ZM636.518 173.576L636.518 1.00067H531.014L531.014 173.576H636.518ZM531.014 174.344H636.518V265.74H531.014V174.344ZM530.315 173.576L530.315 1.00067H424.811L424.811 173.576H530.315ZM424.811 174.344H530.315V265.74H424.811V174.344ZM424.112 173.576L424.112 1.00067H318.608V173.576H424.112ZM318.608 174.344H424.112V265.74H318.608V174.344ZM317.91 173.576V1.00067H212.405V173.576H317.91ZM212.405 174.344H317.91V265.74H212.405V174.344ZM211.706 173.576V1.00067H106.202V173.576H211.706ZM106.202 174.344H211.706V265.74H106.202V174.344ZM105.503 173.576V1.00067H42.7867C21.2476 1.00067 3.78674 18.4615 3.78674 40.0006V173.576H105.503ZM3.78674 174.344H105.503V265.74H3.78674V174.344ZM2.78674 174.344V265.74H0.384033C0.171936 265.74 0 265.912 0 266.124C0 266.336 0.171997 266.508 0.384033 266.508H2.78674V357.904H0.384033C0.171936 357.904 0 358.076 0 358.288C0 358.5 0.171997 358.672 0.384033 358.672H2.78674V450.068H0.384033C0.171936 450.068 0 450.24 0 450.452C0 450.664 0.171997 450.836 0.384033 450.836H2.78674V503C2.78674 525.091 20.6953 543 42.7867 543H806.12C828.212 543 846.12 525.091 846.12 503V40.0007C846.12 17.9093 828.212 0.000671387 806.12 0.000671387H743.081L743.07 0.000488281L743.059 0.000671387H636.889C636.882 0.000244141 636.874 0 636.867 0C636.86 0 636.852 0.000244141 636.845 0.000671387H530.686L530.681 0.000427246C530.675 0.00012207 530.67 0 530.664 0C530.657 0 530.65 0.000244141 530.642 0.000671387H424.473L424.462 0.000488281L424.45 0.000671387H318.27L318.259 0.000488281L318.248 0.000671387H212.077C212.07 0.000244141 212.062 0 212.055 0C212.048 0 212.041 0.000244141 212.033 0.000671387H105.875L105.867 0.000244141L105.86 6.10352e-05L105.853 0C105.845 0 105.838 0.000244141 105.831 0.000671387H42.7867C20.6954 0.000671387 2.78674 17.9092 2.78674 40.0006V173.576H0.384033C0.171936 173.576 0 173.748 0 173.96C0 174.172 0.171997 174.344 0.384033 174.344H2.78674ZM637.216 174.344H742.721V265.74H637.216V174.344ZM742.721 266.508H637.216V357.904H742.721L742.721 266.508ZM636.518 266.508H531.014V357.904H636.518L636.518 266.508ZM530.315 266.508H424.811V357.904H530.315V266.508ZM424.112 266.508H318.608V357.904H424.112V266.508ZM317.91 266.508H212.405V357.904H317.91V266.508ZM211.706 266.508H106.202V357.904H211.706V266.508ZM105.503 266.508H3.78674V357.904H105.503V266.508ZM531.014 358.672H636.518V450.068H531.014V358.672ZM424.811 358.672H530.315V450.068H424.811V358.672ZM318.608 358.672H424.112V450.068H318.608V358.672ZM212.405 358.672H317.91V450.068H212.405V358.672ZM106.202 358.672H211.706V450.068H106.202V358.672ZM3.78674 358.672H105.503V450.068H3.78674V358.672ZM637.216 358.672H742.721V450.068H637.216V358.672ZM742.721 450.836L742.721 542H637.216V450.836H742.721ZM3.78674 450.836H105.503V542H42.7867C21.2476 542 3.78674 524.539 3.78674 503V450.836ZM106.202 450.836V542H211.706V450.836H106.202ZM212.405 542V450.836H317.91V542H212.405ZM318.608 450.836V542H424.112V450.836H318.608ZM424.811 542H530.315V450.836H424.811V542ZM531.014 450.836V542H636.518V450.836H531.014Z" fill="url(#paint0_linear_961_1038)"/>
<defs>
<linearGradient id="paint0_linear_961_1038" x1="422.983" y1="557" x2="422.98" y2="-37.5" gradientUnits="userSpaceOnUse">
<stop stop-color="white"/>
<stop offset="1" stop-opacity="0"/>
</linearGradient>
</defs>
</svg>
